<?xml version="1.0" encoding="utf-8"?>
<!-- Generator: Adobe Illustrator 25.2.0, SVG Export Plug-In . SVG Version: 6.00 Build 0)  -->
<svg version="1.1" id="Layer_1" xmlns="http://www.w3.org/2000/svg" xmlns:xlink="http://www.w3.org/1999/xlink" x="0px" y="0px"
	 width="230.1px" height="163.2px" viewBox="0 0 230.1 163.2" style="enable-background:new 0 0 230.1 163.2;" xml:space="preserve"
	>
<style type="text/css">
	.st0{fill:#CFCECE;}
	.st1{fill:#FFFFFF;}
	.st2{fill:#4B9228;}
</style>
<g>
	<path class="st0" d="M98.5,131.3c-4.5,0-7.4,3.3-7.4,8.1c0,4.9,2.9,8,7.2,8c4.4,0,7.3-3.2,7.3-8
		C105.7,134.5,102.8,131.3,98.5,131.3z M98.5,145.2c-2.6,0-4.6-2.4-4.6-5.9s1.7-5.8,4.5-5.8c2.6,0,4.6,2.4,4.6,5.9
		C103,143,101.3,145.2,98.5,145.2z M191.8,125.9c-0.9,0-1.7,0.7-1.7,1.7c0,0.9,0.7,1.7,1.7,1.7c0.9,0,1.7-0.7,1.7-1.7
		C193.5,126.7,192.8,125.9,191.8,125.9z M83.6,145c-4.7,0-7.6-3.4-7.6-8.6c0-5.3,3.5-8.5,7.8-8.5c3,0,4.9,1.3,5.1,1.4l1.2-2
		c-0.3-0.3-2.3-2-6.5-2c-5.9,0-10.6,4.1-10.6,11.2c0,6.8,4.5,10.8,10.2,10.8c4.3,0,6.9-2,7.1-2.2l-1.2-2
		C88.9,143.5,86.6,145,83.6,145z M203.5,131.3c-4.5,0-7.4,3.3-7.4,8.1c0,4.9,2.9,8,7.2,8c4.5,0,7.3-3.2,7.3-8
		C210.6,134.5,207.8,131.3,203.5,131.3z M203.4,145.2c-2.6,0-4.6-2.4-4.6-5.9s1.7-5.8,4.5-5.8c2.6,0,4.6,2.4,4.6,5.9
		C207.9,143,206.3,145.2,203.4,145.2z M220.7,131.3c-2.6,0-4.5,1.4-4.8,1.6v-1.1h-2.4v15.3h2.7v-12.2c0.1-0.1,2.1-1.3,4-1.3
		c1,0,1.7,0.4,2.2,0.8c0.8,0.8,0.8,2.1,0.8,4v8.7h2.7v-8.9c0-2.5-0.1-4.1-1.5-5.5C223.9,132.2,222.8,131.3,220.7,131.3z
		 M124.3,131.3c-2.3,0-4.1,1-5.3,1.8c-0.7-1-1.8-1.8-3.8-1.8c-2.4,0-4.5,1.4-4.7,1.6v-1.1H108v15.3h2.7v-12.2
		c0.2-0.1,2.1-1.3,3.9-1.3c0.9,0,1.6,0.3,2,0.7c0.8,0.8,0.8,2.2,0.8,4.3v8.5h2.7v-8.6c0-1.2,0-2.9-0.3-3.6c0.4-0.2,2.2-1.3,4.1-1.3
		c0.9,0,1.6,0.3,2.1,0.8c0.8,0.9,0.8,2.8,0.8,3.7v9h2.7v-8.9c0-2.5-0.1-4.1-1.5-5.5C127.5,132.2,126.4,131.3,124.3,131.3z
		 M157.3,147.1h2.7v-15.4h-2.7V147.1z M158.7,125.9c-0.9,0-1.7,0.7-1.7,1.7c0,0.9,0.7,1.7,1.7,1.7c0.9,0,1.7-0.7,1.7-1.7
		C160.3,126.7,159.6,125.9,158.7,125.9z M148.7,131.3c-2.3,0-4.1,1-5.3,1.8c-0.7-1-1.8-1.8-3.8-1.8c-2.4,0-4.5,1.4-4.7,1.6v-1.1
		h-2.4v15.3h2.7v-12.2c0.2-0.1,2.1-1.3,3.9-1.3c0.9,0,1.6,0.3,2,0.7c0.8,0.8,0.8,2.2,0.8,4.3v8.5h2.7v-8.6c0-1.2,0-2.9-0.3-3.6
		c0.3-0.2,2.2-1.3,4.1-1.3c0.9,0,1.6,0.3,2.1,0.8c0.8,0.9,0.8,2.8,0.8,3.7v9h2.7v-8.9c0-2.5-0.1-4.1-1.5-5.5
		C151.9,132.2,150.8,131.3,148.7,131.3z M166.3,135.5c0-1.1,1-2.1,2.8-2.1s3.5,0.9,3.7,1.1l1-1.8c-0.2-0.1-1.9-1.4-4.9-1.4
		c-3.1,0-5.4,1.7-5.4,4.4c0,4.9,7.6,4.2,7.6,7.3c0,1.4-1.3,2.3-3,2.3c-2.2,0-3.8-1-4.1-1.2l-1,1.9c0.2,0.2,2.2,1.5,5.3,1.5
		c3,0,5.6-1.7,5.6-4.7C174,137.9,166.3,138.5,166.3,135.5z M190.5,147.1h2.7v-15.4h-2.7V147.1z M179.4,135.5c0-1.1,1-2.1,2.8-2.1
		c1.9,0,3.5,0.9,3.7,1.1l1-1.8c-0.2-0.1-1.9-1.4-4.9-1.4c-3.1,0-5.4,1.7-5.4,4.4c0,4.9,7.6,4.2,7.6,7.3c0,1.4-1.3,2.3-3,2.3
		c-2.2,0-3.8-1-4.1-1.2l-1,1.9c0.2,0.2,2.2,1.5,5.3,1.5c3,0,5.6-1.7,5.6-4.7C187.1,137.9,179.4,138.5,179.4,135.5z"/>
	<path class="st0" d="M83.5,120.5c4.7,0,7.5-2.4,7.7-2.6l-1.9-3c-0.3,0.2-2.6,1.7-5.3,1.7c-4,0-6.5-2.9-6.5-7.2c0-4.5,3-7.1,6.8-7.1
		c3,0,4.7,1.4,5,1.6l1.9-2.9c-0.2-0.2-2.4-2.4-7.1-2.4c-6.3,0-11,4.2-11,11.2C73,116.4,77.6,120.5,83.5,120.5z M92.4,115.4
		c0,2.9,1.9,5,5,5c2.4,0,4.1-1.3,4.4-1.4v1.1h3.7v-9.3c0-2,0-3.6-1.3-4.9c-1.5-1.5-3.7-1.7-5.1-1.7c-3.6,0-5.7,1.5-5.9,1.7l1.4,2.7
		c0.2-0.1,2.1-1.1,4.1-1.1c1.2,0,1.9,0.3,2.2,0.6c0.4,0.4,0.5,0.9,0.5,1.8H101C99.1,109.8,92.4,109.9,92.4,115.4z M101.5,116.2
		c-0.2,0.1-1.2,0.9-3,0.9c-1,0-2.4-0.4-2.4-2c0-1.9,1.9-2.4,4.7-2.4c0,0,0.4,0,0.7,0C101.5,112.7,101.5,116.2,101.5,116.2z
		 M111.7,109.8c0.5-0.7,1.8-2.2,4.3-2.2c0.2,0,0.8,0.1,0.9,0.1l1-3.2c-0.1,0-0.7-0.4-1.8-0.4c-3.1,0-5,2.2-5.1,2.4v-2h-3.6V120h4.2
		L111.7,109.8L111.7,109.8z M125,104.1c-4.4,0-7.4,3.5-7.4,8.3c0,4.5,2.7,8.1,7.7,8.1c3.4,0,5.8-1.6,5.9-1.7l-1.4-2.7
		c-0.7,0.3-2.2,1.1-4.1,1.1c-3.1,0-4-2.4-4-3.5h10.2c0-0.2,0.1-0.7,0.1-1.3C132,107.3,129.6,104.1,125,104.1z M121.7,110.6
		c0.3-1.9,1.5-3.4,3.4-3.4c2.6,0,2.9,2.5,2.9,3.4H121.7z M163.1,120.4c2.2,0,4.1-1.4,4.4-1.6v1.2h3.6v-15.5h-4.2v11.3
		c-0.3,0.2-1.5,1-2.9,1c-1,0-1.5-0.4-1.7-0.6c-0.6-0.6-0.7-1.6-0.7-3.6v-8.1h-4.2v8.3c0,2-0.1,4.3,1.7,6.1
		C160.1,119.9,161.5,120.4,163.1,120.4z M182.1,118.9v1.1h3.7v-9.3c0-2,0-3.6-1.3-4.9c-1.5-1.5-3.7-1.7-5.1-1.7
		c-3.6,0-5.7,1.5-5.9,1.7l1.4,2.7c0.2-0.1,2.1-1.1,4.1-1.1c1.2,0,1.9,0.3,2.2,0.6c0.4,0.4,0.5,0.9,0.5,1.8h-0.4
		c-1.9,0-8.6,0.1-8.6,5.6c0,2.9,1.9,5,5,5C180.2,120.3,181.8,119.1,182.1,118.9z M176.5,115.1c0-1.9,1.9-2.4,4.7-2.4
		c0,0,0.4,0,0.7,0v3.5c-0.2,0.1-1.2,0.9-3,0.9C177.8,117.1,176.5,116.7,176.5,115.1z M192.1,97.2h-4.2v22.7h4.2V97.2z M196.4,102.6
		c1.3,0,2.4-1.1,2.4-2.4c0-1.4-1.1-2.4-2.4-2.4c-1.4,0-2.4,1.1-2.4,2.4C194,101.6,195.1,102.6,196.4,102.6z M198.6,104.5h-4.2V120
		h4.2V104.5z M209.5,116.9c-1.9,0-2-1.4-2-2.6v-6.2h4.4v-3.5h-4.4v-4.3h-4.2v4.3h-2.7v3.5h2.7v6c0,2.2,0,3.6,1.3,5
		c1,1,2.6,1.4,4,1.4c2.3,0,3.8-0.9,3.9-1l-1.1-2.9C211.2,116.6,210.5,116.9,209.5,116.9z M216.3,123.9c-1.2,0-2.2-0.4-2.4-0.5
		l-1.3,3c0.1,0.1,1.6,1,3.9,1c2.5,0,3.9-0.9,4.5-1.6c1.1-1.1,1.8-2.5,3-5.6l6.1-15.6h-4.2l-3.9,10.8l-4.1-10.8h-4.5l6.5,15.5
		c-0.3,0.7-0.8,2.3-1.5,3.1C217.9,123.6,217.2,123.9,216.3,123.9z M155.6,109.4c0-6.3-4-10.8-10.2-10.8c-6.1,0-10.2,4.4-10.2,10.8
		c0,6.6,4.1,11.1,10.1,11.2l0,0c0,0,0.2,0,0.3,0c2.9,0.1,4.9,1,6.2,2.6c0.4-0.3,3.6-3,3.6-3s-1.1-1.3-3.6-1.7
		C154,116.6,155.6,113.4,155.6,109.4z M145.4,116.8c-3.3,0-5.8-2.7-5.8-7.2c0-4.4,2.2-7.5,5.6-7.5c3.5,0,5.9,3,5.9,7.2
		C151,112.7,149.8,116.8,145.4,116.8z"/>
	<path class="st1" d="M51.3,149.5c8.3-5.9,13.7-15.6,13.7-26.6c0-18-14.6-32.5-32.5-32.5C14.5,90.4,0,105,0,122.9
		c0,18,14.6,32.5,32.5,32.5c0.1,0,0.6,0,0.9,0c8.6,0.1,14.6,3,18.4,7.7c1.3-0.8,10.5-8.8,10.5-8.8S59,150.4,51.3,149.5z M31.8,147.2
		c8.2-1.7,15-7.6,17.9-15.3c0,0,0,0-0.1,0c-3.2,6.2-9.7,10.5-17.2,10.5c-10.7,0-19.3-8.7-19.3-19.3c0-10.7,8.7-19.3,19.3-19.3
		c7.5,0,13.9,4.2,17.2,10.5c0,0,0,0,0.1,0c-3-7.8-9.7-13.6-17.9-15.3c0.3,0,0.5,0,0.8,0c13.2,0,24,10.8,24,24.2s-10.7,24.2-24,24.2
		C32.3,147.2,32.1,147.2,31.8,147.2z"/>
</g>
<g>
	<path class="st1" d="M0.2,72.3V55.6h2v16.7H0.2z"/>
	<path class="st1" d="M13.3,72.3v-7.2c0-1.8,0.1-3.1-2-3.1c-1,0-2.2,0.2-3.5,0.7v9.7H6.1V60.5h1.8v1c1.7-0.8,3-1.2,4.1-1.2
		c1.2,0,2.1,0.4,2.6,1.2c0.5,0.7,0.6,1.2,0.6,3.1v7.8L13.3,72.3C13.3,72.4,13.3,72.3,13.3,72.3z"/>
	<path class="st1" d="M21.1,72.5c-1.2,0-2.1-0.2-3.5-0.6l0.3-1.3c1.2,0.3,2,0.4,2.8,0.4c1.7,0,2.7-0.7,2.7-2c0-1-0.4-1.4-2-1.9
		c-2-0.6-3.7-1.3-3.7-3.4c0-2.2,1.5-3.5,3.9-3.5c0.9,0,1.9,0.2,3.1,0.6l-0.3,1.3c-1.1-0.2-2-0.4-2.7-0.4c-1.3,0-2.1,0.6-2.1,1.7
		c0,2.7,5.8,1.2,5.8,5.3C25.3,71.1,23.8,72.5,21.1,72.5z"/>
	<path class="st1" d="M33.4,72.6c-1.3,0-2.6-0.7-3.7-1.3v6.1h-1.8V60.5h1.8v1c1.5-0.8,2.9-1.3,4-1.3c2.5,0,4,2.3,4,6.1
		C37.7,70.1,36,72.6,33.4,72.6z M33.1,61.9c-0.8,0-1.6,0.2-3.3,0.8V70c1.8,0.6,2.3,0.8,3.2,0.8c1.8,0,2.8-1.5,2.8-4.4
		C35.7,63.3,34.8,61.9,33.1,61.9z"/>
	<path class="st1" d="M41.8,66.6V67c0,2.6,1.1,3.9,3.1,3.9c1.1,0,2.1-0.2,4.1-0.9l0.3,1.1c-2.5,1.1-3.5,1.4-4.9,1.4
		c-2.8,0-4.6-2.2-4.6-5.7c0-4.1,1.9-6.6,5-6.6c3,0,4.5,1.9,4.5,5.7v0.6L41.8,66.6L41.8,66.6z M45,61.7c-1.8,0-2.9,1.3-3.1,3.6
		l5.5-0.2C47.4,62.8,46.7,61.7,45,61.7z"/>
	<path class="st1" d="M56,72.6c-2.9,0-4.7-2-4.7-6c0-3.8,2.1-6.3,4.9-6.3c1,0,2.2,0.3,3.7,0.8l-0.3,1.3c-1.4-0.3-2-0.4-3-0.4
		c-2.3,0-3.4,1.5-3.4,4.6c0,2.9,1.1,4.4,3.2,4.4c0.9,0,2.1-0.3,3.3-0.7l0.4,1.1C58.5,72.1,57.1,72.6,56,72.6z"/>
	<path class="st1" d="M65.1,72.5c-1,0-1.7-0.4-2.1-1.2c-0.2-0.4-0.3-1-0.3-2.3v-7.2h-2v-1l2-0.2v-3.2h1.8v3.1h3.3v1.4h-3.3v6.4
		c0,2.1,0,2.1,0.2,2.4s0.5,0.4,0.9,0.4c0.6,0,1.2-0.1,2.2-0.4l0.3,1.1C67,72.3,66.1,72.5,65.1,72.5z"/>
	<path class="st1" d="M71.5,66.6V67c0,2.6,1.1,3.9,3.1,3.9c1.1,0,2.1-0.2,4.1-0.9l0.3,1.1c-2.5,1.1-3.5,1.4-4.9,1.4
		c-2.8,0-4.6-2.2-4.6-5.7c0-4.1,1.9-6.6,5-6.6c3,0,4.5,1.9,4.5,5.7v0.6L71.5,66.6L71.5,66.6z M74.8,61.7c-1.8,0-2.9,1.3-3.1,3.6
		l5.5-0.2C77.2,62.8,76.4,61.7,74.8,61.7z"/>
	<path class="st1" d="M89,72.3v-1c-1.5,0.8-2.9,1.3-4,1.3c-2.5,0-4-2.3-4-6.1c0-3.7,1.8-6.2,4.3-6.2c1.3,0,2.5,0.7,3.6,1.3v-7h1.9
		v17.8H89V72.3z M89,62.7c-1.8-0.7-2.3-0.8-3.2-0.8c-1.8,0-2.8,1.5-2.8,4.4c0,3.2,0.9,4.6,2.6,4.6c0.8,0,1.6-0.2,3.3-0.9L89,62.7
		L89,62.7z"/>
	<path class="st1" d="M106.6,72.3v-1c-1.5,0.8-2.6,1.3-3.6,1.3c-1.5,0-3-1.2-3-3.7c0-1.9,0.8-3,2.2-3.4c0.9-0.2,2.1-0.3,4.4-0.3
		v-0.5c0-2,0.1-2.8-2.2-2.8c-0.9,0-2,0.1-3.5,0.4l-0.2-1.3c1.9-0.6,3.3-0.8,4.5-0.8s2.1,0.3,2.6,1c0.5,0.6,0.6,1.4,0.6,3.5v7.6
		C108.4,72.3,106.6,72.3,106.6,72.3z M106.5,66.4c-3.8,0.3-4.7,0.8-4.7,2.5c0,1.3,0.6,2,1.6,2c1.1,0,3.1-0.9,3.1-0.9V66.4z"/>
	<path class="st1" d="M119.1,72.3v-7.2c0-1.8,0.1-3.1-2-3.1c-1,0-2.2,0.2-3.5,0.7v9.7h-1.8V60.5h1.8v1c1.7-0.8,3-1.2,4.1-1.2
		c1.2,0,2.1,0.4,2.6,1.2c0.5,0.7,0.6,1.2,0.6,3.1v7.8L119.1,72.3C119.1,72.4,119.1,72.3,119.1,72.3z"/>
	<path class="st1" d="M131.7,72.3v-1c-1.5,0.8-2.9,1.3-4,1.3c-2.5,0-4-2.3-4-6.1c0-3.7,1.8-6.2,4.3-6.2c1.3,0,2.5,0.7,3.6,1.3v-7
		h1.9v17.8h-1.8V72.3z M131.6,62.7c-1.8-0.7-2.3-0.8-3.2-0.8c-1.8,0-2.8,1.5-2.8,4.4c0,3.2,0.9,4.6,2.6,4.6c0.8,0,1.6-0.2,3.3-0.9
		L131.6,62.7L131.6,62.7z"/>
	<path class="st1" d="M148.2,62.1c-1,0-1.9,0.2-3.1,0.7v9.5h-1.8V60.5h1.8v1c1.2-0.8,2-1.2,3.1-1.2c0.2,0,0.3,0,0.6,0v1.8
		C148.5,62.1,148.4,62.1,148.2,62.1z"/>
	<path class="st1" d="M156.4,72.3v-1c-1.5,0.8-2.6,1.3-3.6,1.3c-1.5,0-3-1.2-3-3.7c0-1.9,0.8-3,2.2-3.4c0.9-0.2,2.1-0.3,4.4-0.3
		v-0.5c0-2,0.1-2.8-2.2-2.8c-0.9,0-2,0.1-3.5,0.4l-0.2-1.3c1.9-0.6,3.3-0.8,4.5-0.8s2.1,0.3,2.6,1c0.5,0.6,0.6,1.4,0.6,3.5v7.6
		C158.2,72.3,156.4,72.3,156.4,72.3z M156.3,66.4c-3.8,0.3-4.7,0.8-4.7,2.5c0,1.3,0.6,2,1.6,2c1.1,0,3.1-0.9,3.1-0.9L156.3,66.4
		L156.3,66.4z"/>
	<path class="st1" d="M164.3,72.5c-1,0-1.7-0.4-2.1-1.2c-0.2-0.4-0.3-1-0.3-2.3v-7.2h-2v-1l2-0.2v-3.2h1.8v3.1h3.3v1.4h-3.3v6.4
		c0,2.1,0,2.1,0.2,2.4s0.5,0.4,0.9,0.4c0.6,0,1.2-0.1,2.2-0.4l0.3,1.1C166.1,72.3,165.3,72.5,164.3,72.5z"/>
	<path class="st1" d="M170.7,66.6V67c0,2.6,1.1,3.9,3.1,3.9c1.1,0,2.1-0.2,4-0.9l0.3,1.1c-2.5,1.1-3.5,1.4-4.9,1.4
		c-2.8,0-4.6-2.2-4.6-5.7c0-4.1,1.9-6.6,5-6.6c3,0,4.5,1.9,4.5,5.7v0.6L170.7,66.6L170.7,66.6z M173.9,61.7c-1.8,0-2.9,1.3-3.1,3.6
		l5.5-0.2C176.4,62.8,175.6,61.7,173.9,61.7z"/>
	<path class="st1" d="M188.2,72.3v-1c-1.5,0.8-2.9,1.3-4,1.3c-2.6,0-4-2.3-4-6.1c0-3.7,1.8-6.2,4.3-6.2c1.3,0,2.5,0.7,3.7,1.3v-7
		h1.8v17.8h-1.8V72.3z M188.2,62.7c-1.8-0.7-2.3-0.8-3.2-0.8c-1.8,0-2.8,1.5-2.8,4.4c0,3.2,0.9,4.6,2.7,4.6c0.8,0,1.6-0.2,3.3-0.9
		V62.7z"/>
	<path class="st1" d="M205.4,72.6c-1.3,0-2.6-0.7-3.7-1.3v1h-1.8V54.5h1.8v7c1.6-0.8,2.9-1.3,3.9-1.3c2.5,0,4,2.3,4,6.1
		C209.7,70.1,207.9,72.6,205.4,72.6z M205,61.9c-0.8,0-1.5,0.2-3.3,0.8V70c1.8,0.7,2.3,0.8,3.2,0.8c1.8,0,2.8-1.5,2.8-4.4
		C207.7,63.3,206.8,61.9,205,61.9z"/>
	<path class="st1" d="M216.4,74.2c-1,2.7-1.7,3.3-3.7,3.3c-0.4,0-0.8,0-1.3-0.1l0.2-1.3c0.3,0,0.5,0,0.7,0c1.7,0,1.8-0.1,2.8-2.8
		l0.5-1.2l-4.7-11.6h2.1l3.6,9.3l3.3-9.3h1.8L216.4,74.2z"/>
</g>
<g>
	<path class="st2" d="M3.1,0.4h224c1.6,0,2.9,1.3,2.9,2.9v35.3c0,1.6-1.3,2.9-2.9,2.9H3.1c-1.6,0-2.9-1.3-2.9-2.9V3.3
		C0.1,1.7,1.4,0.4,3.1,0.4z"/>
	<g>
		<path class="st1" d="M91.5,30.7c-5.4,0-8.5-3.9-8.5-10.7c0-6.9,3.3-10.7,9.1-10.7c1.4,0,3.2,0.2,5.3,0.7c0.8,0.2,1.2,0.9,1.1,1.7
			v0c-0.2,0.8-0.9,1.2-1.7,1.1c-1.8-0.3-3.1-0.4-4.2-0.4c-3.7,0-5.4,2.5-5.4,7.6c0,2.7,0.4,4.7,1.4,6c0.8,1.1,1.9,1.7,3.6,1.7
			c0.9,0,1.7-0.1,2.4-0.2c0.7-0.1,1.1-0.7,1.1-1.4v-4.2c0-0.8,0.6-1.4,1.4-1.4h1c0.8,0,1.4,0.6,1.4,1.4v6c0,0.6-0.4,1.1-1,1.3
			C95.5,30.3,93.4,30.7,91.5,30.7z"/>
		<path class="st1" d="M108.9,30.6c-4.5,0-7-2.8-7-7.6c0-4.7,2.7-7.7,7-7.7c4.5,0,7,2.7,7,7.7C116,27.8,113.4,30.6,108.9,30.6z
			 M108.9,17.9c-2.2,0-3.1,1.6-3.1,5c0,3.6,1,5.1,3.2,5.1s3.1-1.5,3.1-5C112,19.3,111.1,17.9,108.9,17.9z"/>
		<path class="st1" d="M124.9,30.6c-4.5,0-7-2.8-7-7.6c0-4.7,2.7-7.7,7-7.7c4.5,0,7,2.7,7,7.7C131.9,27.8,129.4,30.6,124.9,30.6z
			 M124.9,17.9c-2.2,0-3.1,1.6-3.1,5c0,3.6,1,5.1,3.2,5.1s3.1-1.5,3.1-5C128,19.3,127.1,17.9,124.9,17.9z"/>
		<path class="st1" d="M143.7,30.3V29c-1.6,1-3.3,1.7-4.8,1.7c-3.2,0-5-2.9-5-7.6s2.1-7.8,5.3-7.8c0.8,0,1.5,0.2,2.2,0.5
			c0.9,0.4,2-0.3,2-1.3V9.6c0-0.8,0.6-1.4,1.4-1.4h1c0.8,0,1.4,0.6,1.4,1.4v19.2c0,0.8-0.6,1.4-1.4,1.4L143.7,30.3L143.7,30.3z
			 M143.4,19c-1.6-0.5-2.1-0.6-2.8-0.6c-1.9,0-2.9,1.5-2.9,4.6s0.9,4.6,2.7,4.6c0.5,0,1.1-0.1,1.9-0.3c0.6-0.2,1-0.7,1-1.3L143.4,19
			L143.4,19z"/>
	</g>
</g>
</svg>
